<svg width="30" height="30" viewBox="0 0 30 30" fill="none" xmlns="http://www.w3.org/2000/svg">
<rect width="30" height="30" rx="15" fill="#E2E2E2"/>
<path d="M18.1364 8H11.8634C9.73313 8 8 9.73321 8 11.8635V18.1365C8 20.2669 9.73313 22 11.8634 22H18.1364C20.2669 22 22 20.2668 22 18.1365V11.8635C22.0001 9.73321 20.2669 8 18.1364 8ZM20.7579 18.1365C20.7579 19.582 19.582 20.7579 18.1365 20.7579H11.8634C10.418 20.7579 9.24215 19.582 9.24215 18.1365V11.8635C9.24215 10.4181 10.418 9.24215 11.8634 9.24215H18.1364C19.5819 9.24215 20.7579 10.4181 20.7579 11.8635V18.1365H20.7579Z" fill="black"/>
<path d="M15.0005 11.3931C13.0113 11.3931 11.3931 13.0113 11.3931 15.0005C11.3931 16.9896 13.0113 18.6078 15.0005 18.6078C16.9897 18.6078 18.608 16.9896 18.608 15.0005C18.608 13.0113 16.9897 11.3931 15.0005 11.3931ZM15.0005 17.3656C13.6963 17.3656 12.6352 16.3046 12.6352 15.0004C12.6352 13.6962 13.6963 12.6351 15.0005 12.6351C16.3048 12.6351 17.3658 13.6962 17.3658 15.0004C17.3658 16.3046 16.3047 17.3656 15.0005 17.3656Z" fill="black"/>
<path d="M18.7587 10.3398C18.5194 10.3398 18.2843 10.4367 18.1153 10.6065C17.9454 10.7754 17.8478 11.0106 17.8478 11.2508C17.8478 11.4902 17.9455 11.7253 18.1153 11.895C18.2842 12.0639 18.5194 12.1617 18.7587 12.1617C18.9988 12.1617 19.2332 12.0639 19.4029 11.895C19.5727 11.7253 19.6696 11.4901 19.6696 11.2508C19.6696 11.0106 19.5727 10.7754 19.4029 10.6065C19.234 10.4367 18.9988 10.3398 18.7587 10.3398Z" fill="black"/>
</svg>
