<svg width="30" height="30" viewBox="0 0 30 30" fill="none" xmlns="http://www.w3.org/2000/svg">
<rect width="30" height="30" rx="15" fill="#E2E2E2"/>
<path fill-rule="evenodd" clip-rule="evenodd" d="M8.84707 22.3661H21.1529C21.8228 22.3661 22.3662 21.8228 22.3662 21.1528V8.84706C22.3662 8.17724 21.8229 7.63379 21.1529 7.63379H8.84707C8.17724 7.63379 7.63379 8.17708 7.63379 8.84706V21.1528C7.63379 21.8226 8.17708 22.3661 8.84707 22.3661ZM13.2667 13.2669H15.325V14.3029C15.601 13.7496 16.4047 13.1585 17.4677 13.1585C19.505 13.1585 20.1997 14.0793 20.1997 16.2662V20.1997H18.0333V16.7263C18.0333 15.5754 17.8084 14.9458 16.9683 14.9458C15.8326 14.9458 15.4335 15.809 15.4335 16.7263V20.1997H13.2671L13.2667 13.2669ZM9.80041 20.1997H11.9669V13.2669H9.80041V20.1997ZM12.2052 10.8837C12.2052 11.6134 11.6133 12.2053 10.8836 12.2053C10.1538 12.2053 9.56191 11.6134 9.56191 10.8837C9.56191 10.1536 10.1538 9.56206 10.8836 9.56206C11.6133 9.56206 12.2052 10.1535 12.2052 10.8837Z" fill="black"/>
</svg>
