<svg width="30" height="30" viewBox="0 0 30 30" fill="none" xmlns="http://www.w3.org/2000/svg">
<rect width="30" height="30" rx="15" fill="#E2E2E2"/>
<path d="M19.6486 10.4463C18.8297 9.91241 18.2387 9.05815 18.0543 8.06232C18.0145 7.84716 17.9926 7.62573 17.9926 7.39917H15.3791L15.3749 17.8732C15.331 19.0461 14.3656 19.9875 13.1822 19.9875C12.8143 19.9875 12.468 19.8955 12.1631 19.735C11.4638 19.367 10.9852 18.6341 10.9852 17.7906C10.9852 16.5791 11.9708 15.5936 13.1822 15.5936C13.4083 15.5936 13.6252 15.6309 13.8304 15.6951V13.0271C13.618 12.9981 13.4023 12.9801 13.1822 12.9801C10.5296 12.9801 8.3717 15.1381 8.3717 17.7906C8.3717 19.418 9.18482 20.8582 10.4253 21.7291C11.2067 22.2777 12.1571 22.601 13.1822 22.601C15.8347 22.601 17.9926 20.4431 17.9926 17.7906V12.4794C19.0177 13.2151 20.2735 13.6486 21.6287 13.6486V11.0351C20.8987 11.0351 20.2188 10.8181 19.6486 10.4463Z" fill="black"/>
</svg>
