<svg width="51" height="15" viewBox="0 0 51 15" fill="none" xmlns="http://www.w3.org/2000/svg">
<path d="M14.9582 0H0.339959C0.249796 0 0.163326 0.035117 0.0995715 0.0976261C0.0358168 0.160135 0 0.244916 0 0.333317V14.666C0 14.7544 0.0358168 14.8391 0.0995715 14.9017C0.163326 14.9642 0.249796 14.9993 0.339959 14.9993H14.9582C15.0484 14.9993 15.1348 14.9642 15.1986 14.9017C15.2623 14.8391 15.2982 14.7544 15.2982 14.666V0.333317C15.2982 0.244916 15.2623 0.160135 15.1986 0.0976261C15.1348 0.035117 15.0484 0 14.9582 0ZM10.1988 9.6662C10.1988 9.7546 10.163 9.83938 10.0992 9.90189C10.0354 9.9644 9.94898 9.99952 9.85881 9.99952H5.43935C5.34918 9.99952 5.26271 9.9644 5.19896 9.90189C5.1352 9.83938 5.09939 9.7546 5.09939 9.6662V5.33308C5.09939 5.24468 5.1352 5.15989 5.19896 5.09739C5.26271 5.03488 5.34918 4.99976 5.43935 4.99976H9.85881C9.94898 4.99976 10.0354 5.03488 10.0992 5.09739C10.163 5.15989 10.1988 5.24468 10.1988 5.33308V9.6662Z" fill="black"/>
<path d="M45.5627 5.00024H41.1432C40.9555 5.00024 40.8033 5.14948 40.8033 5.33356V9.66669C40.8033 9.85077 40.9555 10 41.1432 10H45.5627C45.7505 10 45.9027 9.85077 45.9027 9.66669V5.33356C45.9027 5.14948 45.7505 5.00024 45.5627 5.00024Z" fill="black"/>
<path d="M40.4616 0.000732422H36.0422C35.8544 0.000732422 35.7022 0.149964 35.7022 0.33405V4.66717C35.7022 4.85126 35.8544 5.00049 36.0422 5.00049H40.4616C40.6494 5.00049 40.8016 4.85126 40.8016 4.66717V0.33405C40.8016 0.149964 40.6494 0.000732422 40.4616 0.000732422Z" fill="black"/>
<path d="M50.66 0.000732422H46.2406C46.0528 0.000732422 45.9006 0.149964 45.9006 0.33405V4.66717C45.9006 4.85126 46.0528 5.00049 46.2406 5.00049H50.66C50.8478 5.00049 51 4.85126 51 4.66717V0.33405C51 0.149964 50.8478 0.000732422 50.66 0.000732422Z" fill="black"/>
<path d="M40.4616 10.0002H36.0422C35.8544 10.0002 35.7022 10.1495 35.7022 10.3336V14.6667C35.7022 14.8508 35.8544 15 36.0422 15H40.4616C40.6494 15 40.8016 14.8508 40.8016 14.6667V10.3336C40.8016 10.1495 40.6494 10.0002 40.4616 10.0002Z" fill="black"/>
<path d="M50.66 10.0002H46.2406C46.0528 10.0002 45.9006 10.1495 45.9006 10.3336V14.6667C45.9006 14.8508 46.0528 15 46.2406 15H50.66C50.8478 15 51 14.8508 51 14.6667V10.3336C51 10.1495 50.8478 10.0002 50.66 10.0002Z" fill="black"/>
<path d="M32.8059 0.000732422H28.3865C28.1987 0.000732422 28.0465 0.149964 28.0465 0.33405V4.66717C28.0465 4.85126 28.1987 5.00049 28.3865 5.00049H32.8059C32.9937 5.00049 33.1459 4.85126 33.1459 4.66717V0.33405C33.1459 0.149964 32.9937 0.000732422 32.8059 0.000732422Z" fill="black"/>
<path d="M32.8059 10.0002H28.3865C28.1987 10.0002 28.0465 10.1495 28.0465 10.3336V14.6667C28.0465 14.8508 28.1987 15 28.3865 15H32.8059C32.9937 15 33.1459 14.8508 33.1459 14.6667V10.3336C33.1459 10.1495 32.9937 10.0002 32.8059 10.0002Z" fill="black"/>
<path d="M28.0469 5.32933C28.0469 5.24093 28.0111 5.15614 27.9473 5.09364C27.8836 5.03113 27.7971 4.99601 27.7069 4.99601H22.9475V0.333317C22.9475 0.244916 22.9117 0.160135 22.8479 0.0976261C22.7842 0.035117 22.6977 0 22.6075 0H18.1881C18.0979 0 18.0114 0.035117 17.9477 0.0976261C17.8839 0.160135 17.8481 0.244916 17.8481 0.333317V14.6585C17.8481 14.7469 17.8839 14.8316 17.9477 14.8942C18.0114 14.9567 18.0979 14.9918 18.1881 14.9918H22.6075C22.6977 14.9918 22.7842 14.9567 22.8479 14.8942C22.9117 14.8316 22.9475 14.7469 22.9475 14.6585V9.99577H27.7069C27.7971 9.99577 27.8836 9.96065 27.9473 9.89814C28.0111 9.83563 28.0469 9.75085 28.0469 9.66245V5.32933Z" fill="black"/>
</svg>
